<mxfile host="app.diagrams.net" agent="Mozilla/5.0 (Windows NT 10.0; Win64; x64) AppleWebKit/537.36 (KHTML, like Gecko) Chrome/138.0.0.0 Safari/537.36" version="28.0.7">
  <diagram name="1 oldal" id="hQPQQjcDzUvgNUd47pVK">
    <mxGraphModel dx="1280" dy="698" grid="1" gridSize="10" guides="1" tooltips="1" connect="1" arrows="1" fold="1" page="1" pageScale="1" pageWidth="827" pageHeight="1169" math="0" shadow="0">
      <root>
        <mxCell id="0" />
        <mxCell id="1" parent="0" />
        <mxCell id="Q62ph1cx0rq94xiSPrFS-86" value="" style="rounded=0;whiteSpace=wrap;html=1;" vertex="1" parent="1">
          <mxGeometry x="450" y="2290" width="780" height="560" as="geometry" />
        </mxCell>
        <mxCell id="Q62ph1cx0rq94xiSPrFS-1" value="" style="strokeWidth=1;shadow=0;dashed=0;align=center;html=1;shape=mxgraph.mockup.containers.browserWindow;rSize=0;strokeColor=#666666;strokeColor2=#008cff;strokeColor3=#c4c4c4;mainText=,;recursiveResize=0;sketch=1;curveFitting=1;jiggle=2;" vertex="1" parent="1">
          <mxGeometry x="50" y="140" width="330" height="270" as="geometry" />
        </mxCell>
        <mxCell id="Q62ph1cx0rq94xiSPrFS-2" value="Page 1" style="strokeWidth=1;shadow=0;dashed=0;align=center;html=1;shape=mxgraph.mockup.containers.anchor;fontSize=17;fontColor=#666666;align=left;whiteSpace=wrap;" vertex="1" parent="Q62ph1cx0rq94xiSPrFS-1">
          <mxGeometry x="60" y="12" width="110" height="26" as="geometry" />
        </mxCell>
        <mxCell id="Q62ph1cx0rq94xiSPrFS-3" value="https://myapp.com" style="strokeWidth=1;shadow=0;dashed=0;align=center;html=1;shape=mxgraph.mockup.containers.anchor;rSize=0;fontSize=17;fontColor=#666666;align=left;" vertex="1" parent="Q62ph1cx0rq94xiSPrFS-1">
          <mxGeometry x="130" y="60" width="250" height="26" as="geometry" />
        </mxCell>
        <mxCell id="Q62ph1cx0rq94xiSPrFS-5" value="Server" style="points=[[0,0],[0.25,0],[0.5,0],[0.75,0],[1,0],[1,0.25],[1,0.5],[1,0.75],[1,1],[0.75,1],[0.5,1],[0.25,1],[0,1],[0,0.75],[0,0.5],[0,0.25]];outlineConnect=0;gradientColor=none;html=1;whiteSpace=wrap;fontSize=12;fontStyle=0;container=1;pointerEvents=0;collapsible=0;recursiveResize=0;shape=mxgraph.aws4.group;grIcon=mxgraph.aws4.group_on_premise;strokeColor=#7D8998;fillColor=default;verticalAlign=top;align=left;spacingLeft=30;fontColor=#5A6C86;dashed=0;" vertex="1" parent="1">
          <mxGeometry x="970" y="110" width="310" height="350" as="geometry" />
        </mxCell>
        <mxCell id="Q62ph1cx0rq94xiSPrFS-11" value="" style="ellipse;whiteSpace=wrap;html=1;aspect=fixed;sketch=1;curveFitting=1;jiggle=2;" vertex="1" parent="Q62ph1cx0rq94xiSPrFS-5">
          <mxGeometry x="-20" y="155" width="40" height="40" as="geometry" />
        </mxCell>
        <mxCell id="Q62ph1cx0rq94xiSPrFS-34" value="The Servlet Container&lt;br&gt;(Tomcat, Jetty, Undertow...)&lt;br&gt;Listening" style="rounded=1;whiteSpace=wrap;html=1;sketch=1;curveFitting=1;jiggle=2;" vertex="1" parent="Q62ph1cx0rq94xiSPrFS-5">
          <mxGeometry x="60" y="73" width="210" height="207" as="geometry" />
        </mxCell>
        <mxCell id="Q62ph1cx0rq94xiSPrFS-35" value="" style="shape=image;html=1;verticalAlign=top;verticalLabelPosition=bottom;labelBackgroundColor=#ffffff;imageAspect=0;aspect=fixed;image=https://icons.diagrams.net/icon-cache1/Boxicons_Logos-2642/bxl-spring-boot-1339.svg;sketch=1;curveFitting=1;jiggle=2;" vertex="1" parent="Q62ph1cx0rq94xiSPrFS-5">
          <mxGeometry x="70" y="90" width="24" height="24" as="geometry" />
        </mxCell>
        <mxCell id="Q62ph1cx0rq94xiSPrFS-7" value="" style="endArrow=classic;html=1;rounded=0;exitX=1.001;exitY=0.53;exitDx=0;exitDy=0;exitPerimeter=0;entryX=0.021;entryY=0.496;entryDx=0;entryDy=0;entryPerimeter=0;sketch=1;curveFitting=1;jiggle=2;" edge="1" parent="1" source="Q62ph1cx0rq94xiSPrFS-1">
          <mxGeometry width="50" height="50" relative="1" as="geometry">
            <mxPoint x="640" y="530" as="sourcePoint" />
            <mxPoint x="1033.9900000000002" y="284.24" as="targetPoint" />
          </mxGeometry>
        </mxCell>
        <mxCell id="Q62ph1cx0rq94xiSPrFS-12" value="8080" style="edgeLabel;html=1;align=center;verticalAlign=middle;resizable=0;points=[];" vertex="1" connectable="0" parent="Q62ph1cx0rq94xiSPrFS-7">
          <mxGeometry x="0.7993" y="-1" relative="1" as="geometry">
            <mxPoint x="2" as="offset" />
          </mxGeometry>
        </mxCell>
        <mxCell id="Q62ph1cx0rq94xiSPrFS-6" value="" style="image;aspect=fixed;perimeter=ellipsePerimeter;html=1;align=center;shadow=0;dashed=0;spacingTop=3;image=img/lib/active_directory/internet_cloud.svg;" vertex="1" parent="1">
          <mxGeometry x="589" y="210" width="238.1" height="150" as="geometry" />
        </mxCell>
        <mxCell id="Q62ph1cx0rq94xiSPrFS-8" value="&lt;b&gt;&lt;font style=&quot;font-size: 20px;&quot;&gt;Internet&lt;/font&gt;&lt;/b&gt;" style="text;html=1;align=center;verticalAlign=middle;whiteSpace=wrap;rounded=0;" vertex="1" parent="1">
          <mxGeometry x="670" y="270" width="60" height="30" as="geometry" />
        </mxCell>
        <mxCell id="Q62ph1cx0rq94xiSPrFS-13" value="&lt;b&gt;&lt;font style=&quot;font-size: 13px;&quot;&gt;/GET&amp;nbsp; myapp.com&lt;/font&gt;&lt;/b&gt;" style="text;html=1;align=center;verticalAlign=middle;whiteSpace=wrap;rounded=0;" vertex="1" parent="1">
          <mxGeometry x="414" y="250" width="120" height="30" as="geometry" />
        </mxCell>
        <mxCell id="Q62ph1cx0rq94xiSPrFS-14" value="Server contents" style="points=[[0,0],[0.25,0],[0.5,0],[0.75,0],[1,0],[1,0.25],[1,0.5],[1,0.75],[1,1],[0.75,1],[0.5,1],[0.25,1],[0,1],[0,0.75],[0,0.5],[0,0.25]];outlineConnect=0;gradientColor=none;html=1;whiteSpace=wrap;fontSize=12;fontStyle=0;container=1;pointerEvents=0;collapsible=0;recursiveResize=0;shape=mxgraph.aws4.group;grIcon=mxgraph.aws4.group_on_premise;strokeColor=#7D8998;fillColor=none;verticalAlign=top;align=left;spacingLeft=30;fontColor=#5A6C86;dashed=0;" vertex="1" parent="1">
          <mxGeometry x="360" y="750" width="820" height="510" as="geometry" />
        </mxCell>
        <mxCell id="Q62ph1cx0rq94xiSPrFS-15" value="" style="rounded=1;whiteSpace=wrap;html=1;sketch=1;curveFitting=1;jiggle=2;" vertex="1" parent="Q62ph1cx0rq94xiSPrFS-14">
          <mxGeometry x="40" y="80" width="760" height="400" as="geometry" />
        </mxCell>
        <mxCell id="Q62ph1cx0rq94xiSPrFS-16" value="MyAPP on Tomcat" style="text;html=1;align=center;verticalAlign=middle;whiteSpace=wrap;rounded=0;sketch=1;curveFitting=1;jiggle=2;" vertex="1" parent="Q62ph1cx0rq94xiSPrFS-14">
          <mxGeometry x="60" y="90" width="150" height="30" as="geometry" />
        </mxCell>
        <mxCell id="Q62ph1cx0rq94xiSPrFS-17" value="DispatcherServlet&lt;br&gt;(FrontController)" style="rounded=1;whiteSpace=wrap;html=1;sketch=1;curveFitting=1;jiggle=2;" vertex="1" parent="Q62ph1cx0rq94xiSPrFS-14">
          <mxGeometry x="280" y="250" width="120" height="60" as="geometry" />
        </mxCell>
        <mxCell id="Q62ph1cx0rq94xiSPrFS-21" value="BookController" style="rounded=1;whiteSpace=wrap;html=1;sketch=1;curveFitting=1;jiggle=2;" vertex="1" parent="Q62ph1cx0rq94xiSPrFS-14">
          <mxGeometry x="610" y="180" width="120" height="60" as="geometry" />
        </mxCell>
        <mxCell id="Q62ph1cx0rq94xiSPrFS-22" value="UserController" style="rounded=1;whiteSpace=wrap;html=1;sketch=1;curveFitting=1;jiggle=2;" vertex="1" parent="Q62ph1cx0rq94xiSPrFS-14">
          <mxGeometry x="610" y="310" width="120" height="60" as="geometry" />
        </mxCell>
        <mxCell id="Q62ph1cx0rq94xiSPrFS-30" value="" style="rounded=0;whiteSpace=wrap;html=1;sketch=1;curveFitting=1;jiggle=2;" vertex="1" parent="Q62ph1cx0rq94xiSPrFS-14">
          <mxGeometry x="470" y="100" width="80" height="360" as="geometry" />
        </mxCell>
        <mxCell id="Q62ph1cx0rq94xiSPrFS-27" value="" style="endArrow=classic;html=1;rounded=0;entryX=0;entryY=0.5;entryDx=0;entryDy=0;exitX=1;exitY=0.5;exitDx=0;exitDy=0;sketch=1;curveFitting=1;jiggle=2;" edge="1" parent="Q62ph1cx0rq94xiSPrFS-14" source="Q62ph1cx0rq94xiSPrFS-17" target="Q62ph1cx0rq94xiSPrFS-21">
          <mxGeometry width="50" height="50" relative="1" as="geometry">
            <mxPoint x="570" y="280" as="sourcePoint" />
            <mxPoint x="370" y="210" as="targetPoint" />
          </mxGeometry>
        </mxCell>
        <mxCell id="Q62ph1cx0rq94xiSPrFS-28" value="" style="endArrow=classic;html=1;rounded=0;entryX=0;entryY=0.5;entryDx=0;entryDy=0;exitX=1;exitY=0.5;exitDx=0;exitDy=0;sketch=1;curveFitting=1;jiggle=2;" edge="1" parent="Q62ph1cx0rq94xiSPrFS-14" source="Q62ph1cx0rq94xiSPrFS-17" target="Q62ph1cx0rq94xiSPrFS-22">
          <mxGeometry width="50" height="50" relative="1" as="geometry">
            <mxPoint x="570" y="280" as="sourcePoint" />
            <mxPoint x="370" y="210" as="targetPoint" />
          </mxGeometry>
        </mxCell>
        <mxCell id="Q62ph1cx0rq94xiSPrFS-31" value="Serialization" style="text;html=1;align=center;verticalAlign=middle;whiteSpace=wrap;rounded=0;sketch=1;curveFitting=1;jiggle=2;" vertex="1" parent="Q62ph1cx0rq94xiSPrFS-14">
          <mxGeometry x="480" y="100" width="60" height="30" as="geometry" />
        </mxCell>
        <mxCell id="Q62ph1cx0rq94xiSPrFS-32" value="Interceptors" style="text;html=1;align=center;verticalAlign=middle;whiteSpace=wrap;rounded=0;sketch=1;curveFitting=1;jiggle=2;" vertex="1" parent="Q62ph1cx0rq94xiSPrFS-14">
          <mxGeometry x="480" y="120" width="60" height="30" as="geometry" />
        </mxCell>
        <mxCell id="Q62ph1cx0rq94xiSPrFS-33" value="" style="shape=image;html=1;verticalAlign=top;verticalLabelPosition=bottom;labelBackgroundColor=#ffffff;imageAspect=0;aspect=fixed;image=https://icons.diagrams.net/icon-cache1/Boxicons_Logos-2642/bxl-spring-boot-1339.svg;sketch=1;curveFitting=1;jiggle=2;" vertex="1" parent="Q62ph1cx0rq94xiSPrFS-14">
          <mxGeometry x="60" y="93" width="24" height="24" as="geometry" />
        </mxCell>
        <mxCell id="Q62ph1cx0rq94xiSPrFS-36" value="/v1/books" style="text;html=1;align=center;verticalAlign=middle;whiteSpace=wrap;rounded=0;" vertex="1" parent="Q62ph1cx0rq94xiSPrFS-14">
          <mxGeometry x="610" y="140" width="60" height="30" as="geometry" />
        </mxCell>
        <mxCell id="Q62ph1cx0rq94xiSPrFS-37" value="/v1/users" style="text;html=1;align=center;verticalAlign=middle;whiteSpace=wrap;rounded=0;" vertex="1" parent="Q62ph1cx0rq94xiSPrFS-14">
          <mxGeometry x="610" y="280" width="60" height="30" as="geometry" />
        </mxCell>
        <mxCell id="Q62ph1cx0rq94xiSPrFS-18" value="" style="endArrow=classic;html=1;rounded=0;sketch=1;curveFitting=1;jiggle=2;" edge="1" parent="1" source="Q62ph1cx0rq94xiSPrFS-23" target="Q62ph1cx0rq94xiSPrFS-17">
          <mxGeometry width="50" height="50" relative="1" as="geometry">
            <mxPoint x="200" y="1030" as="sourcePoint" />
            <mxPoint x="850" y="1100" as="targetPoint" />
          </mxGeometry>
        </mxCell>
        <mxCell id="Q62ph1cx0rq94xiSPrFS-20" value="" style="endArrow=classic;html=1;rounded=0;sketch=1;curveFitting=1;jiggle=2;" edge="1" parent="1" target="Q62ph1cx0rq94xiSPrFS-19">
          <mxGeometry width="50" height="50" relative="1" as="geometry">
            <mxPoint x="200" y="1030" as="sourcePoint" />
            <mxPoint x="520" y="1030" as="targetPoint" />
          </mxGeometry>
        </mxCell>
        <mxCell id="Q62ph1cx0rq94xiSPrFS-19" value="8080" style="ellipse;whiteSpace=wrap;html=1;aspect=fixed;sketch=1;curveFitting=1;jiggle=2;" vertex="1" parent="1">
          <mxGeometry x="380" y="1005" width="50" height="50" as="geometry" />
        </mxCell>
        <mxCell id="Q62ph1cx0rq94xiSPrFS-24" value="" style="endArrow=classic;html=1;rounded=0;sketch=1;curveFitting=1;jiggle=2;" edge="1" parent="1" source="Q62ph1cx0rq94xiSPrFS-19" target="Q62ph1cx0rq94xiSPrFS-23">
          <mxGeometry width="50" height="50" relative="1" as="geometry">
            <mxPoint x="430" y="1030" as="sourcePoint" />
            <mxPoint x="640" y="1030" as="targetPoint" />
          </mxGeometry>
        </mxCell>
        <mxCell id="Q62ph1cx0rq94xiSPrFS-23" value="WebFilters" style="shape=hexagon;perimeter=hexagonPerimeter2;whiteSpace=wrap;html=1;fixedSize=1;sketch=1;curveFitting=1;jiggle=2;" vertex="1" parent="1">
          <mxGeometry x="470" y="990" width="120" height="80" as="geometry" />
        </mxCell>
        <mxCell id="Q62ph1cx0rq94xiSPrFS-38" value="&lt;b&gt;&lt;font style=&quot;font-size: 31px;&quot;&gt;&lt;font style=&quot;color: rgb(255, 0, 0);&quot;&gt;https://myapp.com&lt;/font&gt;&lt;font style=&quot;color: rgb(0, 0, 255);&quot;&gt;/api&lt;/font&gt;&lt;font style=&quot;color: rgb(153, 153, 0);&quot;&gt;/v1&lt;/font&gt;&lt;font style=&quot;color: rgb(0, 153, 153);&quot;&gt;/users&lt;/font&gt;&lt;font style=&quot;color: rgb(76, 0, 153);&quot;&gt;/&lt;/font&gt;&lt;font style=&quot;color: rgb(76, 0, 153);&quot;&gt;7&lt;/font&gt;&lt;font style=&quot;color: rgb(102, 204, 0);&quot;&gt;/orders&lt;/font&gt;&lt;font style=&quot;color: rgb(153, 0, 77);&quot;&gt;?status=new&amp;amp;sort=created_at&lt;/font&gt;&lt;/font&gt;&lt;/b&gt;" style="text;html=1;align=center;verticalAlign=middle;whiteSpace=wrap;rounded=0;" vertex="1" parent="1">
          <mxGeometry x="160" y="1680" width="1360" height="30" as="geometry" />
        </mxCell>
        <mxCell id="Q62ph1cx0rq94xiSPrFS-39" value="" style="verticalLabelPosition=bottom;shadow=0;dashed=0;align=center;html=1;verticalAlign=top;strokeWidth=4;shape=mxgraph.mockup.markup.curlyBrace;whiteSpace=wrap;strokeColor=#FF0000;rotation=-180;" vertex="1" parent="1">
          <mxGeometry x="320" y="1720" width="280" height="20" as="geometry" />
        </mxCell>
        <mxCell id="Q62ph1cx0rq94xiSPrFS-40" value="" style="verticalLabelPosition=bottom;shadow=0;dashed=0;align=center;html=1;verticalAlign=top;strokeWidth=4;shape=mxgraph.mockup.markup.curlyBrace;whiteSpace=wrap;strokeColor=#999900;rotation=-180;" vertex="1" parent="1">
          <mxGeometry x="650" y="1720" width="50" height="20" as="geometry" />
        </mxCell>
        <mxCell id="Q62ph1cx0rq94xiSPrFS-41" value="" style="verticalLabelPosition=bottom;shadow=0;dashed=0;align=center;html=1;verticalAlign=top;strokeWidth=4;shape=mxgraph.mockup.markup.curlyBrace;whiteSpace=wrap;strokeColor=#4C0099;rotation=-180;" vertex="1" parent="1">
          <mxGeometry x="777" y="1720" width="37" height="20" as="geometry" />
        </mxCell>
        <mxCell id="Q62ph1cx0rq94xiSPrFS-42" value="" style="verticalLabelPosition=bottom;shadow=0;dashed=0;align=center;html=1;verticalAlign=top;strokeWidth=4;shape=mxgraph.mockup.markup.curlyBrace;whiteSpace=wrap;strokeColor=#99004D;rotation=-180;" vertex="1" parent="1">
          <mxGeometry x="920" y="1720" width="437" height="20" as="geometry" />
        </mxCell>
        <mxCell id="Q62ph1cx0rq94xiSPrFS-43" value="" style="verticalLabelPosition=bottom;shadow=0;dashed=0;align=center;html=1;verticalAlign=top;strokeWidth=4;shape=mxgraph.mockup.markup.curlyBrace;whiteSpace=wrap;strokeColor=#0000FF;rotation=0;" vertex="1" parent="1">
          <mxGeometry x="600" y="1650" width="50" height="20" as="geometry" />
        </mxCell>
        <mxCell id="Q62ph1cx0rq94xiSPrFS-44" value="" style="verticalLabelPosition=bottom;shadow=0;dashed=0;align=center;html=1;verticalAlign=top;strokeWidth=4;shape=mxgraph.mockup.markup.curlyBrace;whiteSpace=wrap;strokeColor=#009999;rotation=0;" vertex="1" parent="1">
          <mxGeometry x="700" y="1650" width="90" height="20" as="geometry" />
        </mxCell>
        <mxCell id="Q62ph1cx0rq94xiSPrFS-45" value="" style="verticalLabelPosition=bottom;shadow=0;dashed=0;align=center;html=1;verticalAlign=top;strokeWidth=4;shape=mxgraph.mockup.markup.curlyBrace;whiteSpace=wrap;strokeColor=#66CC00;rotation=0;" vertex="1" parent="1">
          <mxGeometry x="820" y="1650" width="90" height="20" as="geometry" />
        </mxCell>
        <mxCell id="Q62ph1cx0rq94xiSPrFS-46" value="&lt;b&gt;&lt;font style=&quot;font-size: 16px; color: rgb(255, 0, 0);&quot;&gt;protocol, domain...&lt;/font&gt;&lt;/b&gt;" style="text;html=1;align=center;verticalAlign=middle;whiteSpace=wrap;rounded=0;" vertex="1" parent="1">
          <mxGeometry x="385" y="1753.5" width="150" height="30" as="geometry" />
        </mxCell>
        <mxCell id="Q62ph1cx0rq94xiSPrFS-47" value="&lt;b&gt;&lt;font style=&quot;font-size: 16px; color: rgb(0, 0, 255);&quot;&gt;alap &lt;br&gt;útvonal&lt;/font&gt;&lt;/b&gt;" style="text;html=1;align=center;verticalAlign=middle;whiteSpace=wrap;rounded=0;" vertex="1" parent="1">
          <mxGeometry x="570" y="1590" width="110" height="50" as="geometry" />
        </mxCell>
        <mxCell id="Q62ph1cx0rq94xiSPrFS-48" value="&lt;b&gt;&lt;font style=&quot;font-size: 16px; color: rgb(153, 153, 0);&quot;&gt;verzió&lt;/font&gt;&lt;/b&gt;" style="text;html=1;align=center;verticalAlign=middle;whiteSpace=wrap;rounded=0;" vertex="1" parent="1">
          <mxGeometry x="635" y="1754" width="80" height="30" as="geometry" />
        </mxCell>
        <mxCell id="Q62ph1cx0rq94xiSPrFS-49" value="&lt;b&gt;&lt;font style=&quot;font-size: 16px; color: rgb(0, 153, 153);&quot;&gt;fő &lt;br&gt;erőforrás&lt;/font&gt;&lt;/b&gt;" style="text;html=1;align=center;verticalAlign=middle;whiteSpace=wrap;rounded=0;" vertex="1" parent="1">
          <mxGeometry x="693.5" y="1600" width="103" height="40" as="geometry" />
        </mxCell>
        <mxCell id="Q62ph1cx0rq94xiSPrFS-50" value="&lt;b&gt;&lt;font style=&quot;font-size: 16px; color: rgb(76, 0, 153);&quot;&gt;erőforrás azonosító&lt;br&gt;(path param)&lt;/font&gt;&lt;/b&gt;" style="text;html=1;align=center;verticalAlign=middle;whiteSpace=wrap;rounded=0;" vertex="1" parent="1">
          <mxGeometry x="717.5" y="1754" width="156" height="50" as="geometry" />
        </mxCell>
        <mxCell id="Q62ph1cx0rq94xiSPrFS-51" value="&lt;b&gt;&lt;font style=&quot;font-size: 16px; color: rgb(102, 204, 0);&quot;&gt;kapcsolt&lt;br&gt;erőforrás&lt;/font&gt;&lt;/b&gt;" style="text;html=1;align=center;verticalAlign=middle;whiteSpace=wrap;rounded=0;" vertex="1" parent="1">
          <mxGeometry x="813.5" y="1600" width="103" height="40" as="geometry" />
        </mxCell>
        <mxCell id="Q62ph1cx0rq94xiSPrFS-52" value="&lt;b&gt;&lt;font style=&quot;font-size: 16px; color: rgb(153, 0, 77);&quot;&gt;query paraméterek&lt;br&gt;(lekérdezés paraméterek)&lt;/font&gt;&lt;/b&gt;" style="text;html=1;align=center;verticalAlign=middle;whiteSpace=wrap;rounded=0;" vertex="1" parent="1">
          <mxGeometry x="998.5" y="1754" width="280" height="50" as="geometry" />
        </mxCell>
        <mxCell id="Q62ph1cx0rq94xiSPrFS-53" value="&lt;b&gt;Servlet Container (Tomcat)&lt;/b&gt;" style="rounded=1;whiteSpace=wrap;html=1;sketch=1;curveFitting=1;jiggle=2;" vertex="1" parent="1">
          <mxGeometry x="620" y="2480" width="400" height="80" as="geometry" />
        </mxCell>
        <mxCell id="Q62ph1cx0rq94xiSPrFS-60" value="" style="pointerEvents=1;shadow=0;dashed=0;html=1;strokeColor=none;fillColor=#434445;aspect=fixed;labelPosition=center;verticalLabelPosition=bottom;verticalAlign=top;align=center;outlineConnect=0;shape=mxgraph.vvd.web_browser;" vertex="1" parent="1">
          <mxGeometry x="620" y="2343.8500000000004" width="73.5" height="52.19" as="geometry" />
        </mxCell>
        <mxCell id="Q62ph1cx0rq94xiSPrFS-61" value="" style="pointerEvents=1;shadow=0;dashed=0;html=1;strokeColor=none;fillColor=#434445;aspect=fixed;labelPosition=center;verticalLabelPosition=bottom;verticalAlign=top;align=center;outlineConnect=0;shape=mxgraph.vvd.web_browser;" vertex="1" parent="1">
          <mxGeometry x="782.5" y="2343.32" width="75" height="53.25" as="geometry" />
        </mxCell>
        <mxCell id="Q62ph1cx0rq94xiSPrFS-62" value="" style="pointerEvents=1;shadow=0;dashed=0;html=1;strokeColor=none;fillColor=#434445;aspect=fixed;labelPosition=center;verticalLabelPosition=bottom;verticalAlign=top;align=center;outlineConnect=0;shape=mxgraph.vvd.web_browser;" vertex="1" parent="1">
          <mxGeometry x="950" y="2345.09" width="70" height="49.7" as="geometry" />
        </mxCell>
        <mxCell id="Q62ph1cx0rq94xiSPrFS-63" value="" style="endArrow=classic;html=1;rounded=0;entryX=0.25;entryY=0;entryDx=0;entryDy=0;sketch=1;curveFitting=1;jiggle=2;" edge="1" parent="1" source="Q62ph1cx0rq94xiSPrFS-60" target="Q62ph1cx0rq94xiSPrFS-53">
          <mxGeometry width="50" height="50" relative="1" as="geometry">
            <mxPoint x="670" y="2410" as="sourcePoint" />
            <mxPoint x="870" y="2420" as="targetPoint" />
          </mxGeometry>
        </mxCell>
        <mxCell id="Q62ph1cx0rq94xiSPrFS-65" value="" style="endArrow=classic;html=1;rounded=0;entryX=0.5;entryY=0;entryDx=0;entryDy=0;sketch=1;curveFitting=1;jiggle=2;" edge="1" parent="1" source="Q62ph1cx0rq94xiSPrFS-61" target="Q62ph1cx0rq94xiSPrFS-53">
          <mxGeometry width="50" height="50" relative="1" as="geometry">
            <mxPoint x="820" y="2470" as="sourcePoint" />
            <mxPoint x="870" y="2420" as="targetPoint" />
          </mxGeometry>
        </mxCell>
        <mxCell id="Q62ph1cx0rq94xiSPrFS-66" value="" style="endArrow=classic;html=1;rounded=0;entryX=0.75;entryY=0;entryDx=0;entryDy=0;sketch=1;curveFitting=1;jiggle=2;" edge="1" parent="1" source="Q62ph1cx0rq94xiSPrFS-62" target="Q62ph1cx0rq94xiSPrFS-53">
          <mxGeometry width="50" height="50" relative="1" as="geometry">
            <mxPoint x="1050" y="2440" as="sourcePoint" />
            <mxPoint x="870" y="2420" as="targetPoint" />
          </mxGeometry>
        </mxCell>
        <mxCell id="Q62ph1cx0rq94xiSPrFS-67" value="&lt;b&gt;Requests&lt;br&gt;GET /books&lt;/b&gt;" style="text;html=1;align=center;verticalAlign=middle;whiteSpace=wrap;rounded=0;sketch=1;curveFitting=1;jiggle=2;" vertex="1" parent="1">
          <mxGeometry x="720" y="2420" width="100" height="30" as="geometry" />
        </mxCell>
        <mxCell id="Q62ph1cx0rq94xiSPrFS-68" value="&lt;b&gt;Thread 1&lt;/b&gt;" style="rounded=0;whiteSpace=wrap;html=1;sketch=1;curveFitting=1;jiggle=2;" vertex="1" parent="1">
          <mxGeometry x="635" y="2600" width="107.5" height="50" as="geometry" />
        </mxCell>
        <mxCell id="Q62ph1cx0rq94xiSPrFS-69" value="&lt;b&gt;Thread 2&lt;/b&gt;" style="rounded=0;whiteSpace=wrap;html=1;sketch=1;curveFitting=1;jiggle=2;" vertex="1" parent="1">
          <mxGeometry x="766.25" y="2600" width="107.5" height="50" as="geometry" />
        </mxCell>
        <mxCell id="Q62ph1cx0rq94xiSPrFS-70" value="&lt;b&gt;Thread 3&lt;/b&gt;" style="rounded=0;whiteSpace=wrap;html=1;sketch=1;curveFitting=1;jiggle=2;" vertex="1" parent="1">
          <mxGeometry x="900" y="2600" width="107.5" height="50" as="geometry" />
        </mxCell>
        <mxCell id="Q62ph1cx0rq94xiSPrFS-71" value="" style="endArrow=classic;html=1;rounded=0;entryX=0.5;entryY=0;entryDx=0;entryDy=0;exitX=0.173;exitY=0.994;exitDx=0;exitDy=0;exitPerimeter=0;sketch=1;curveFitting=1;jiggle=2;" edge="1" parent="1" source="Q62ph1cx0rq94xiSPrFS-53" target="Q62ph1cx0rq94xiSPrFS-68">
          <mxGeometry width="50" height="50" relative="1" as="geometry">
            <mxPoint x="690" y="2561" as="sourcePoint" />
            <mxPoint x="870" y="2510" as="targetPoint" />
          </mxGeometry>
        </mxCell>
        <mxCell id="Q62ph1cx0rq94xiSPrFS-72" value="&lt;b&gt;&lt;font style=&quot;font-size: 15px;&quot;&gt;Spring MVC Thread / Request Model&lt;/font&gt;&lt;/b&gt;" style="text;html=1;align=center;verticalAlign=middle;whiteSpace=wrap;rounded=0;sketch=1;curveFitting=1;jiggle=2;" vertex="1" parent="1">
          <mxGeometry x="450" y="2290" width="280" height="30" as="geometry" />
        </mxCell>
        <mxCell id="Q62ph1cx0rq94xiSPrFS-73" value="" style="endArrow=classic;html=1;rounded=0;entryX=0.5;entryY=0;entryDx=0;entryDy=0;exitX=0.5;exitY=1;exitDx=0;exitDy=0;sketch=1;curveFitting=1;jiggle=2;" edge="1" parent="1" source="Q62ph1cx0rq94xiSPrFS-53" target="Q62ph1cx0rq94xiSPrFS-69">
          <mxGeometry width="50" height="50" relative="1" as="geometry">
            <mxPoint x="680" y="2540" as="sourcePoint" />
            <mxPoint x="680" y="2580" as="targetPoint" />
          </mxGeometry>
        </mxCell>
        <mxCell id="Q62ph1cx0rq94xiSPrFS-74" value="" style="endArrow=classic;html=1;rounded=0;entryX=0.5;entryY=0;entryDx=0;entryDy=0;exitX=0.832;exitY=0.969;exitDx=0;exitDy=0;exitPerimeter=0;sketch=1;curveFitting=1;jiggle=2;" edge="1" parent="1" source="Q62ph1cx0rq94xiSPrFS-53" target="Q62ph1cx0rq94xiSPrFS-70">
          <mxGeometry width="50" height="50" relative="1" as="geometry">
            <mxPoint x="820" y="2580" as="sourcePoint" />
            <mxPoint x="820" y="2620" as="targetPoint" />
          </mxGeometry>
        </mxCell>
        <mxCell id="Q62ph1cx0rq94xiSPrFS-75" value="" style="rounded=1;whiteSpace=wrap;html=1;sketch=1;curveFitting=1;jiggle=2;" vertex="1" parent="1">
          <mxGeometry x="470" y="2750" width="567.5" height="60" as="geometry" />
        </mxCell>
        <mxCell id="Q62ph1cx0rq94xiSPrFS-76" value="&lt;b&gt;Controller Singleton&lt;/b&gt;" style="text;html=1;align=center;verticalAlign=middle;whiteSpace=wrap;rounded=0;sketch=1;curveFitting=1;jiggle=2;" vertex="1" parent="1">
          <mxGeometry x="480" y="2750" width="120" height="30" as="geometry" />
        </mxCell>
        <mxCell id="Q62ph1cx0rq94xiSPrFS-77" value="&lt;b&gt;Call Stack 3&lt;/b&gt;" style="shape=hexagon;perimeter=hexagonPerimeter2;whiteSpace=wrap;html=1;fixedSize=1;sketch=1;curveFitting=1;jiggle=2;" vertex="1" parent="1">
          <mxGeometry x="893.75" y="2740" width="120" height="80" as="geometry" />
        </mxCell>
        <mxCell id="Q62ph1cx0rq94xiSPrFS-78" value="&lt;b&gt;Call Stack 2&lt;/b&gt;" style="shape=hexagon;perimeter=hexagonPerimeter2;whiteSpace=wrap;html=1;fixedSize=1;sketch=1;curveFitting=1;jiggle=2;" vertex="1" parent="1">
          <mxGeometry x="760" y="2740" width="120" height="80" as="geometry" />
        </mxCell>
        <mxCell id="Q62ph1cx0rq94xiSPrFS-79" value="&lt;b&gt;Call Stack 1&lt;/b&gt;" style="shape=hexagon;perimeter=hexagonPerimeter2;whiteSpace=wrap;html=1;fixedSize=1;sketch=1;curveFitting=1;jiggle=2;" vertex="1" parent="1">
          <mxGeometry x="628.75" y="2740" width="120" height="80" as="geometry" />
        </mxCell>
        <mxCell id="Q62ph1cx0rq94xiSPrFS-80" value="" style="endArrow=classic;html=1;rounded=0;exitX=0.5;exitY=1;exitDx=0;exitDy=0;sketch=1;curveFitting=1;jiggle=2;" edge="1" parent="1" source="Q62ph1cx0rq94xiSPrFS-68" target="Q62ph1cx0rq94xiSPrFS-79">
          <mxGeometry width="50" height="50" relative="1" as="geometry">
            <mxPoint x="820" y="2550" as="sourcePoint" />
            <mxPoint x="870" y="2500" as="targetPoint" />
          </mxGeometry>
        </mxCell>
        <mxCell id="Q62ph1cx0rq94xiSPrFS-81" value="" style="endArrow=classic;html=1;rounded=0;entryX=0.5;entryY=0;entryDx=0;entryDy=0;exitX=0.5;exitY=1;exitDx=0;exitDy=0;sketch=1;curveFitting=1;jiggle=2;" edge="1" parent="1" source="Q62ph1cx0rq94xiSPrFS-69" target="Q62ph1cx0rq94xiSPrFS-78">
          <mxGeometry width="50" height="50" relative="1" as="geometry">
            <mxPoint x="820" y="2660" as="sourcePoint" />
            <mxPoint x="870" y="2500" as="targetPoint" />
          </mxGeometry>
        </mxCell>
        <mxCell id="Q62ph1cx0rq94xiSPrFS-82" value="&lt;b&gt;Requests&lt;br&gt;GET /books&lt;/b&gt;" style="text;html=1;align=center;verticalAlign=middle;whiteSpace=wrap;rounded=0;sketch=1;curveFitting=1;jiggle=2;" vertex="1" parent="1">
          <mxGeometry x="827.1" y="2420" width="100" height="30" as="geometry" />
        </mxCell>
        <mxCell id="Q62ph1cx0rq94xiSPrFS-83" value="" style="endArrow=classic;html=1;rounded=0;exitX=0.5;exitY=1;exitDx=0;exitDy=0;sketch=1;curveFitting=1;jiggle=2;" edge="1" parent="1" source="Q62ph1cx0rq94xiSPrFS-70" target="Q62ph1cx0rq94xiSPrFS-77">
          <mxGeometry width="50" height="50" relative="1" as="geometry">
            <mxPoint x="820" y="2680" as="sourcePoint" />
            <mxPoint x="820" y="2770" as="targetPoint" />
          </mxGeometry>
        </mxCell>
        <mxCell id="Q62ph1cx0rq94xiSPrFS-85" value="&lt;b&gt;call users function&lt;/b&gt;" style="text;html=1;align=center;verticalAlign=middle;whiteSpace=wrap;rounded=0;strokeColor=default;sketch=1;curveFitting=1;jiggle=2;" vertex="1" parent="1">
          <mxGeometry x="550" y="2680" width="540" height="30" as="geometry" />
        </mxCell>
      </root>
    </mxGraphModel>
  </diagram>
</mxfile>
